<?xml version="1.0" encoding="utf-8"?>
<!-- Generator: Adobe Illustrator 21.0.0, SVG Export Plug-In . SVG Version: 6.00 Build 0)  -->
<svg version="1.1" id="Ebene_1" xmlns="http://www.w3.org/2000/svg" xmlns:xlink="http://www.w3.org/1999/xlink" x="0px" y="0px"
	 viewBox="0 0 192 153" style="enable-background:new 0 0 192 153;" xml:space="preserve">
<style type="text/css">
	.st0{fill:#FFFFFF;}
	.st1{fill:none;stroke:#FFFFFF;stroke-miterlimit:10;}
	.st2{fill:none;stroke:#FFFFFF;stroke-width:2;stroke-miterlimit:10;}
</style>
<g id="FÜrstenkrone">
	<g id="Perlen">
		<ellipse class="st0" cx="91.1" cy="66.1" rx="1.2" ry="1.2"/>
		<ellipse class="st0" cx="91.1" cy="74.3" rx="1.2" ry="1.2"/>
		<ellipse class="st0" cx="91.1" cy="78.4" rx="1.2" ry="1.2"/>
		<ellipse class="st0" cx="91" cy="82.5" rx="1.2" ry="1.2"/>
		<ellipse class="st0" cx="91.1" cy="70.2" rx="1.2" ry="1.2"/>
		<path class="st0" d="M98.1,80.8c-1.8-3.5-2.8-13-0.7-16.5h-4.9c0.6,0.4,0.9,1.1,0.9,1.8c0,0.9-0.6,1.7-1.4,2.1
			c0.8,0.3,1.4,1.1,1.4,2.1c0,0.9-0.6,1.7-1.4,2.1c0.8,0.3,1.4,1.1,1.4,2.1c0,0.9-0.6,1.7-1.4,2.1c0.8,0.3,1.4,1.1,1.4,2.1
			c0,1-0.6,1.8-1.5,2.1c0.8,0.3,1.4,1.1,1.4,2c0,1.2-1,2.2-2.2,2.2c-1.2,0-2.2-1-2.2-2.2c0-1,0.6-1.8,1.5-2.1
			c-0.8-0.3-1.4-1.1-1.4-2c0-0.9,0.6-1.7,1.4-2.1c-0.8-0.3-1.4-1.1-1.4-2.1c0-0.9,0.6-1.7,1.4-2.1c-0.8-0.3-1.4-1.1-1.4-2.1
			c0-0.9,0.6-1.7,1.4-2.1c-0.8-0.3-1.4-1.1-1.4-2.1c0-0.7,0.4-1.4,0.9-1.8h-5.3c2.1,3.5,1.1,13-0.7,16.5c5.2,2.2,6.9,6.6,7.1,7.2
			L91,88.1c0,0,0,0,0,0c0,0,0,0,0,0V88C91.2,87.4,92.8,83,98.1,80.8z"/>
		<g>
			<g>
				<g>
					<g>
						<path class="st1" d="M147.5,97.6c1.3,0.7,1.8,2.3,1,3.7c-0.8,1.3-2.4,1.7-3.7,1c-1.3-0.8-1.7-2.4-1-3.6
							C144.6,97.4,146.2,96.9,147.5,97.6z"/>
					</g>
					<g>
						<path class="st1" d="M150.3,91.9c1.4,0.6,2,2.2,1.3,3.6c-0.6,1.4-2.3,1.9-3.6,1.2c-1.3-0.7-1.8-2.3-1.2-3.6
							C147.4,91.9,148.9,91.3,150.3,91.9z"/>
					</g>
					<g>
						<path class="st1" d="M152.5,85.9c1.4,0.4,2.2,2,1.7,3.5c-0.6,1.5-2.1,2.2-3.5,1.6c-1.4-0.6-2.1-2.1-1.6-3.4
							C149.6,86.3,151.1,85.5,152.5,85.9z"/>
					</g>
					<g>
						<path class="st1" d="M153.8,79.8c1.5,0.1,2.5,1.6,2.2,3.2c-0.3,1.6-1.8,2.5-3.3,2.1c-1.4-0.4-2.3-1.8-2-3.1
							C151,80.5,152.3,79.6,153.8,79.8z"/>
					</g>
					<g>
						<path class="st1" d="M153.8,73.4c0.7-0.1,1.4,0.1,2,0.6c0.5,0.5,1,1.2,0.9,2c0.1,1.7-1.3,2.9-2.8,2.7
							c-1.5-0.1-2.5-1.3-2.6-2.6c0-0.7,0.2-1.2,0.7-1.7C152.4,73.9,153.1,73.5,153.8,73.4z"/>
					</g>
					<g>
						<path class="st1" d="M151.6,67.5c0.6-0.4,1.4-0.5,2.1-0.3c0.7,0.3,1.3,0.8,1.6,1.6c0.3,0.8,0.2,1.7-0.1,2.3
							c-0.4,0.7-1,1.1-1.7,1.3s-1.4,0-2-0.3c-0.6-0.3-1.1-0.7-1.2-1.3c-0.3-0.5-0.2-1.2,0-1.8C150.6,68.5,151,67.9,151.6,67.5z"/>
					</g>
					<g>
						<path class="st1" d="M147.3,63c0.8-1.2,2.7-1.5,3.9-0.2c0.7,0.6,0.9,1.4,0.9,2.1c0,0.7-0.4,1.4-1,1.8c-0.6,0.4-1.3,0.6-2,0.6
							c-0.7,0-1.2-0.3-1.7-0.7C146.6,65.8,146.4,64.2,147.3,63z"/>
					</g>
					<g>
						<path class="st1" d="M141.6,60.1c0.2-0.7,0.8-1.2,1.4-1.5c0.6-0.2,1.4-0.2,2.2,0.1c0.8,0.3,1.3,1,1.5,1.7
							c0.2,0.7,0.1,1.4-0.3,2c-0.4,0.6-1,1.1-1.6,1.3c-0.6,0.2-1.2,0.1-1.9-0.1c-0.6-0.3-1-0.8-1.3-1.4
							C141.4,61.6,141.4,60.8,141.6,60.1z"/>
					</g>
					<g>
						<path class="st1" d="M135.5,58.6c0.2-1.4,1.7-2.5,3.2-2.1c0.8,0.2,1.4,0.6,1.7,1.3c0.4,0.6,0.4,1.4,0.2,2.1
							c-0.2,0.7-0.7,1.3-1.3,1.6c-0.6,0.3-1.3,0.5-1.9,0.3C136.2,61.4,135.2,60.1,135.5,58.6z"/>
					</g>
					<g>
						<path class="st1" d="M129.2,57.9c0.1-1.5,1.4-2.7,2.9-2.5c0.8,0.1,1.4,0.5,1.9,1c0.4,0.5,0.6,1.3,0.5,2
							c-0.1,0.7-0.5,1.3-1,1.8c-0.5,0.4-1.2,0.7-1.9,0.6C130.2,60.6,129.1,59.4,129.2,57.9z"/>
					</g>
					<g>
						<path class="st1" d="M122.9,57.8c0-1.5,1.2-2.7,2.7-2.7c1.5,0,2.7,1.3,2.6,2.8c-0.1,1.5-1.3,2.6-2.7,2.6
							C124.1,60.4,122.9,59.2,122.9,57.8z"/>
					</g>
					<g>
						<path class="st1" d="M116.5,58.1c-0.1-1.5,1-2.8,2.5-2.9c1.5-0.1,2.8,1.1,2.8,2.6c0,1.5-1.1,2.7-2.5,2.8
							C117.9,60.6,116.6,59.6,116.5,58.1z"/>
					</g>
					<g>
						<path class="st1" d="M110.2,58.7c-0.2-1.5,0.9-2.8,2.4-3c1.5-0.2,2.8,1,2.9,2.4c0.1,1.5-1,2.7-2.4,2.9
							C111.7,61.2,110.4,60.2,110.2,58.7z"/>
					</g>
					<g>
						<path class="st1" d="M103.9,59.5c-0.2-1.5,0.8-2.8,2.3-3c1.5-0.2,2.8,0.8,3,2.3c0.2,1.5-0.8,2.8-2.3,3
							C105.5,62,104.2,61,103.9,59.5z"/>
					</g>
				</g>
			</g>
		</g>
		<g>
			<g>
				<g>
					<g>
						<path class="st1" d="M33.7,97c1.3-0.7,2.9-0.2,3.6,1c0.7,1.2,0.3,2.8-1,3.6c-1.3,0.8-2.9,0.3-3.7-1
							C31.9,99.3,32.3,97.7,33.7,97z"/>
					</g>
					<g>
						<path class="st1" d="M31,91.3c1.4-0.6,2.9,0,3.5,1.3c0.6,1.3,0.1,2.8-1.3,3.5c-1.3,0.7-3,0.2-3.6-1.2
							C29,93.5,29.6,91.9,31,91.3z"/>
					</g>
					<g>
						<path class="st1" d="M28.8,85.5c1.4-0.4,2.9,0.3,3.3,1.6c0.5,1.3-0.2,2.8-1.6,3.4c-1.4,0.6-2.9-0.1-3.5-1.6
							C26.6,87.4,27.4,85.9,28.8,85.5z"/>
					</g>
					<g>
						<path class="st1" d="M27.5,79.3c1.5-0.1,2.8,0.8,3.1,2.1c0.2,1.3-0.6,2.7-2,3.1c-1.4,0.4-2.9-0.5-3.2-2.1
							C25,80.9,26.1,79.4,27.5,79.3z"/>
					</g>
					<g>
						<path class="st1" d="M27.7,73.1c0.7,0.1,1.3,0.5,1.8,1c0.5,0.5,0.6,1.1,0.6,1.7c-0.1,1.2-1.1,2.4-2.6,2.5
							c-1.5,0.1-2.8-1.1-2.7-2.7c0-0.8,0.4-1.6,1-2C26.2,73.1,26.9,72.9,27.7,73.1z"/>
					</g>
					<g>
						<path class="st1" d="M29.9,67.2c0.6,0.4,1,1,1.2,1.6c0.2,0.6,0.3,1.2,0,1.8c-0.2,0.6-0.7,1-1.3,1.3c-0.6,0.3-1.3,0.4-2,0.2
							c-0.7-0.2-1.3-0.6-1.7-1.3c-0.3-0.6-0.3-1.5,0-2.3c0.4-0.8,1-1.4,1.7-1.6C28.5,66.7,29.3,66.8,29.9,67.2z"/>
					</g>
					<g>
						<path class="st1" d="M34.3,62.8c0.8,1.3,0.6,2.8-0.2,3.6c-0.5,0.4-1,0.6-1.7,0.6c-0.6,0-1.4-0.2-2-0.6c-0.6-0.5-0.9-1.1-1-1.8
							c0-0.7,0.2-1.6,0.9-2.1C31.6,61.3,33.5,61.6,34.3,62.8z"/>
					</g>
					<g>
						<path class="st1" d="M39.9,60.1c0.2,0.7,0.2,1.4-0.1,2c-0.2,0.6-0.7,1.1-1.3,1.4c-0.6,0.2-1.2,0.3-1.9,0.1
							c-0.6-0.2-1.2-0.6-1.6-1.3c-0.4-0.6-0.5-1.4-0.3-2c0.2-0.7,0.7-1.4,1.5-1.6c0.7-0.3,1.5-0.3,2.2-0.1
							C39.1,58.8,39.7,59.4,39.9,60.1z"/>
					</g>
					<g>
						<path class="st1" d="M46,58.5c0.2,1.5-0.7,2.8-2,3.1c-0.7,0.2-1.3,0-1.9-0.3c-0.6-0.3-1-0.9-1.3-1.6c-0.2-0.7-0.1-1.4,0.2-2.1
							c0.3-0.6,1-1.1,1.7-1.2c0.8-0.2,1.5,0,2.1,0.4C45.4,57.2,45.9,57.8,46,58.5z"/>
					</g>
					<g>
						<path class="st1" d="M52.2,57.8c0.1,1.5-1,2.7-2.4,2.9c-1.4,0.1-2.7-0.9-2.9-2.4c-0.2-1.5,0.8-2.8,2.3-3
							C50.8,55.2,52.1,56.4,52.2,57.8z"/>
					</g>
					<g>
						<path class="st1" d="M58.5,57.7c0,1.5-1.2,2.7-2.6,2.7c-1.4,0-2.6-1.1-2.7-2.6c-0.1-1.5,1.1-2.8,2.6-2.8
							C57.3,55,58.5,56.2,58.5,57.7z"/>
					</g>
					<g>
						<path class="st1" d="M64.8,58c-0.1,1.5-1.3,2.6-2.8,2.5c-1.4,0-2.5-1.3-2.5-2.8c0-1.5,1.3-2.6,2.8-2.6
							C63.7,55.2,64.9,56.5,64.8,58z"/>
					</g>
					<g>
						<path class="st1" d="M71,58.5c-0.2,1.5-1.5,2.5-2.9,2.4c-1.4-0.2-2.5-1.4-2.4-2.9c0.1-1.5,1.4-2.6,2.9-2.5
							C70.1,55.7,71.2,57.1,71,58.5z"/>
					</g>
					<g>
						<path class="st1" d="M77.2,59.3c-0.2,1.5-1.6,2.5-3,2.3c-1.4-0.2-2.4-1.5-2.3-3c0.2-1.5,1.5-2.5,3-2.3
							C76.4,56.5,77.5,57.9,77.2,59.3z"/>
					</g>
				</g>
			</g>
		</g>
	</g>
	<path id="Krone" class="st0" d="M133.7,120.7c5-5.7,10-14,8.2-20.3c-0.4-1.3-2-1.5-2.4-1.4c-1.4,0.2-2.6,3.3-2.9,5.1
		c-2.2-0.9-7.1-2.7-8.3-1.3c-0.7,0.9,0.3,2.5,1.1,3.5c0.1,0.2,0.3,0.4,0.5,0.6c0.9,1.1,2.6,3.1,2.1,4.3c-0.3,0.8-1.6,1.2-3.7,1.3
		c-4,0.2-6.5-1.7-7.9-3.3c-1.5-1.8-2-3.5-1.9-3.8c0-0.1,0.6-0.2,1.1-0.3c1.4-0.2,3.7-0.6,6.6-2.8c0.8-0.6,1.8-1.5,1.4-2.3
		c-0.8-1.7-6.9-0.6-8.1-0.4c0-0.6,0.3-2,0.6-3.1c0.7-3,1.4-6-0.1-6.8c-1.6-0.8-3.2,2.1-4.7,4.8c-0.6,1-1.3,2.3-1.7,2.7
		c-0.7-1-4.4-5.9-6.1-5.3c-0.9,0.3-0.8,1.7-0.6,2.6c0.6,3.6,2,5.5,2.8,6.6c0.3,0.4,0.6,0.8,0.6,0.9c-0.6,0.4-6.9,1.2-10.8,0.1
		s-5.2-2.4-5.3-2.9c0-0.1,0.5-0.4,1-0.7c1.3-0.8,3.4-2,5.4-5.4c0.5-0.9,1.2-2.1,0.4-2.8c-1.3-1.3-6.5,1.8-7.9,2.7
		c0-0.2,1.6-6.4-2-8.1c-3.7,1.7-3.3,8-3.3,8.1c-1.4-0.9-6.6-3.9-7.9-2.7c-0.7,0.7-0.1,1.9,0.4,2.8c2,3.3,4.1,4.6,5.4,5.4
		c0.5,0.3,1,0.6,1,0.7c-0.1,0.5-1.4,1.9-5.3,2.9s-10.2,0.3-10.8-0.1c-0.1-0.1,0.3-0.6,0.6-0.9c0.8-1.1,2.2-3,2.8-6.6
		c0.2-1,0.3-2.3-0.6-2.6c-1.7-0.7-5.4,4.2-6.1,5.3c-0.4-0.4-1.2-1.7-1.7-2.7c-1.6-2.7-3.2-5.6-4.7-4.8c-1.5,0.7-0.8,3.8-0.1,6.8
		c0.3,1.1,0.6,2.6,0.6,3.1c-1.2-0.2-7.3-1.2-8.1,0.4c-0.4,0.9,0.6,1.7,1.4,2.3c2.9,2.2,5.2,2.6,6.6,2.8c0.5,0.1,1,0.2,1.1,0.3
		c0.1,0.3-0.4,2-1.9,3.8c-1.4,1.6-3.9,3.5-7.9,3.3c-2.1-0.1-3.4-0.6-3.7-1.3c-0.5-1.2,1.2-3.2,2.1-4.3c0.2-0.2,0.3-0.4,0.5-0.6
		c0.8-1.1,1.9-2.6,1.2-3.5c-1.1-1.5-6,0.3-8.3,1.3c-0.3-1.9-1.5-5-2.9-5.1c-0.5-0.1-1.1,0.1-1.4,1.4c-3,10.3,11.4,24.8,11.4,24.8
		s16.8-11,39.9-11s37.8,11.5,37.8,11.5 M47.9,120.5l-2.9-4.1l10-0.9L47.9,120.5z M68.8,114c-2.2,0-3.9-1.7-3.9-3.9
		c0-2.2,1.7-3.9,3.9-3.9c2.2,0,3.9,1.7,3.9,3.9C72.7,112.3,70.9,114,68.8,114z M91,112.9l-12.6-4.8l12.6-4.8l12.3,4.8L91,112.9z
		 M113.5,113.7c-2.2,0-3.9-1.7-3.9-3.9c0-2.2,1.7-3.9,3.9-3.9c2.2,0,3.9,1.7,3.9,3.9C117.4,111.9,115.6,113.7,113.5,113.7z
		 M132.9,120.3l-5.3-4.8l9,0.5L132.9,120.3z"/>
	<g id="Reichsapfel">
		<path class="st0" d="M100.8,50.3c-0.2-0.7-0.4-1.4-0.8-2c-4.3,2.2-7.3,1.6-7.5,1.6l0,0L92.4,34h5.8v-2.3h-5.8l0-5.6h-2.9l0,5.6
			h-5.3V34l5.3,0l-0.3,15.6l0,0c-0.1,0-2.7,0.5-7.4-1.5c-0.4,0.7-0.6,1.4-0.8,2.1C90.5,53.2,91.2,53.2,100.8,50.3z"/>
		<path class="st0" d="M99.9,47.2c-1.5-2.3-3.8-4-6.6-4.7l0,6.4C94.2,49,96.7,49,99.9,47.2z"/>
		<path class="st0" d="M90.9,53.4c-2.8,0-5.5-0.8-10.7-2.3c-0.1,0.6-0.2,1.2-0.2,1.9c0,5.9,4.8,10.8,10.8,10.8
			c6,0,10.8-4.8,10.8-10.8c0-0.6-0.1-1.2-0.2-1.8C96.3,52.7,93.6,53.4,90.9,53.4z"/>
		<path class="st0" d="M88.4,48.8l0-6.2c-2.7,0.6-5.1,2.3-6.6,4.6C85.3,48.7,87.5,48.8,88.4,48.8z"/>
	</g>
	<path class="st2" d="M141.1,101.8c18.6-29.5,15.1-49.3-50-36.5c-66.3-13.4-69.3,7-50.7,36.5"/>
</g>
</svg>
